<?xml version="1.0" standalone="no"?>
<!DOCTYPE svg PUBLIC "-//W3C//DTD SVG 20010904//EN"
 "http://www.w3.org/TR/2001/REC-SVG-20010904/DTD/svg10.dtd">
<svg version="1.0" xmlns="http://www.w3.org/2000/svg"
 width="1207.000000pt" height="1280.000000pt" viewBox="0 0 1207.000000 1280.000000"
 preserveAspectRatio="xMidYMid meet">
<metadata>
Created by potrace 1.15, written by Peter Selinger 2001-2017
</metadata>
<g transform="translate(0.000000,1280.000000) scale(0.100000,-0.100000)"
fill="#ff5722" stroke="none">
<path d="M5148 12784 c-32 -17 -58 -61 -58 -98 0 -14 24 -61 55 -106 l55 -81
0 -1305 0 -1305 -107 -167 c-314 -493 -441 -775 -505 -1130 -30 -168 -30 -438
1 -615 46 -268 133 -522 271 -793 97 -191 234 -417 272 -449 76 -64 190 2 169
97 -5 20 -29 70 -55 110 l-46 75 0 1234 0 1234 165 260 c190 299 260 420 344
595 126 265 188 501 198 760 18 483 -146 954 -530 1523 -120 177 -155 202
-229 161z"/>
<path d="M6680 12778 c-37 -25 -56 -71 -47 -111 4 -13 29 -57 57 -98 l50 -74
0 -1302 0 -1302 -99 -155 c-323 -503 -456 -803 -517 -1161 -27 -155 -24 -443
5 -610 26 -145 72 -314 126 -462 84 -227 333 -688 410 -761 72 -67 175 -26
175 70 0 35 -10 58 -50 121 l-50 78 0 1239 0 1238 158 249 c193 301 268 431
343 588 135 286 194 506 206 775 18 415 -114 847 -406 1328 -94 155 -198 307
-233 340 -38 35 -86 38 -128 10z"/>
<path d="M3805 12737 c-52 -52 -49 -93 15 -188 l50 -74 0 -1312 0 -1311 -114
-179 c-241 -379 -354 -605 -435 -868 -169 -555 -76 -1136 283 -1783 105 -187
189 -318 215 -331 49 -26 128 -3 149 44 21 47 13 78 -43 170 l-55 90 0 1226 0
1226 158 249 c208 327 261 419 348 599 356 739 264 1412 -312 2280 -109 165
-128 185 -183 192 -36 5 -44 2 -76 -30z"/>
<path d="M8004 12741 c-35 -15 -64 -60 -64 -101 0 -27 12 -54 50 -109 l50 -73
0 -1313 0 -1313 -134 -213 c-208 -332 -294 -497 -375 -718 -91 -246 -126 -464
-118 -721 9 -264 59 -496 169 -774 88 -224 307 -629 385 -714 31 -33 36 -34
84 -30 62 6 88 30 96 87 5 37 0 50 -51 134 l-56 93 0 1225 0 1224 143 225
c353 556 459 773 532 1095 124 550 -27 1130 -470 1795 -57 85 -114 165 -128
178 -27 25 -81 36 -113 23z"/>
<path d="M640 6288 c1 -147 20 -708 30 -868 116 -1827 596 -3084 1584 -4150
l106 -115 -1143 -5 c-1268 -6 -1178 0 -1207 -71 -11 -26 -11 -38 1 -73 13 -39
20 -44 154 -114 77 -40 237 -126 355 -192 283 -156 362 -197 502 -258 514
-227 1184 -346 2402 -427 196 -13 586 -15 2610 -15 2276 0 2392 1 2628 20
1315 104 1971 237 2533 512 61 29 276 138 478 242 298 153 371 194 382 217 19
36 19 63 0 99 -33 64 44 60 -1277 60 l-1203 0 106 107 c766 781 1243 1692
1463 2793 125 626 169 1170 186 2288 l0 22 -5345 0 -5345 0 0 -72z"/>
</g>
</svg>
