<?xml version="1.0" standalone="no"?>
<!DOCTYPE svg PUBLIC "-//W3C//DTD SVG 20010904//EN"
 "http://www.w3.org/TR/2001/REC-SVG-20010904/DTD/svg10.dtd">
<svg version="1.0" xmlns="http://www.w3.org/2000/svg"
 width="1184.000000pt" height="1280.000000pt" viewBox="0 0 1184.000000 1280.000000"
 preserveAspectRatio="xMidYMid meet">
<metadata>
Created by potrace 1.15, written by Peter Selinger 2001-2017
</metadata>
<g transform="translate(0.000000,1280.000000) scale(0.100000,-0.100000)"
fill="#ff5722" stroke="none">
<path d="M0 12790 c0 -6 40 -10 100 -10 60 0 100 4 100 10 0 6 -40 10 -100 10
-60 0 -100 -4 -100 -10z"/>
<path d="M7012 8535 c0 -16 2 -22 5 -12 2 9 2 23 0 30 -3 6 -5 -1 -5 -18z"/>
<path d="M5381 8494 c0 -11 3 -14 6 -6 3 7 2 16 -1 19 -3 4 -6 -2 -5 -13z"/>
<path d="M5821 7994 c0 -11 3 -14 6 -6 3 7 2 16 -1 19 -3 4 -6 -2 -5 -13z"/>
<path d="M5823 7905 c0 -22 2 -30 4 -17 2 12 2 30 0 40 -3 9 -5 -1 -4 -23z"/>
<path d="M4730 7604 c-1165 -69 -1979 -260 -2650 -620 -109 -59 -127 -66 -150
-56 -14 6 -68 28 -120 50 -120 51 -292 103 -445 136 -249 52 -850 112 -956 95
-148 -24 -173 -81 -89 -206 21 -32 130 -148 242 -259 181 -179 213 -206 293
-250 76 -41 326 -155 388 -178 18 -6 18 -8 -2 -39 -55 -82 -102 -169 -128
-232 -15 -39 -32 -73 -37 -76 -5 -4 21 -65 58 -135 78 -149 72 -154 -10 -8
-31 54 -53 90 -50 79 106 -415 167 -596 421 -1236 242 -608 344 -898 409
-1159 l26 -105 -50 -54 c-67 -72 -110 -160 -118 -247 -52 -525 440 -1110 1270
-1509 902 -433 2107 -615 3533 -534 1255 71 2422 447 3165 1020 122 94 319
292 392 394 188 265 242 534 146 731 -36 74 -127 166 -220 221 -37 22 -64 43
-60 47 3 4 -2 4 -12 0 -15 -6 -17 -4 -11 6 5 8 4 11 -2 7 -7 -5 -163 54 -181
68 -1 1 16 42 39 91 165 358 412 947 542 1296 254 678 345 1061 266 1111 -13
8 -19 23 -19 49 0 54 -44 184 -85 252 -283 471 -1095 832 -2340 1040 -522 88
-1163 158 -1685 186 -668 36 -1412 46 -1770 24z m971 -90 l74 -7 3 -41 c15
-237 75 -464 158 -601 19 -32 33 -59 32 -60 -2 -1 -111 -5 -243 -9 l-240 -7
-32 68 c-22 48 -68 109 -151 205 -66 75 -134 157 -152 183 -38 56 -105 197
-115 243 l-7 32 300 0 c164 0 332 -3 373 -6z m-761 -46 c0 -66 28 -235 51
-313 37 -124 85 -201 191 -307 145 -146 155 -192 84 -380 -19 -51 -41 -120
-49 -153 -18 -72 -30 -185 -19 -185 10 0 93 104 134 170 87 136 144 284 157
410 8 67 8 70 10 24 3 -122 -92 -355 -207 -510 -72 -96 -89 -111 -104 -96 -18
18 9 166 53 292 22 63 45 133 50 155 15 56 6 119 -24 163 l-24 38 -153 -13
c-594 -47 -1173 -151 -1665 -298 -265 -78 -624 -214 -522 -196 5 1 6 -2 3 -7
-3 -5 25 -36 62 -68 564 -495 1103 -1052 1198 -1236 44 -86 23 -126 -56 -113
-47 8 -103 43 -459 288 -637 438 -947 617 -1289 747 l-133 50 -82 -62 c-128
-96 -314 -288 -385 -397 -34 -51 -69 -114 -79 -139 l-17 -45 40 -34 c186 -158
560 -375 896 -522 414 -179 1053 -362 1477 -421 578 -81 1069 -114 1721 -114
525 0 808 14 1315 64 308 30 932 192 1375 357 476 177 943 415 1259 641 88 63
271 227 271 243 0 17 -113 150 -186 219 -460 433 -1297 772 -2349 949 -128 22
-330 51 -351 51 -7 0 10 -30 38 -67 100 -132 115 -204 75 -355 -39 -146 -155
-359 -247 -456 -44 -45 -54 -34 -47 52 7 79 28 158 77 286 37 99 43 178 17
227 -9 17 -56 70 -104 116 -81 78 -142 161 -158 212 -4 11 8 -7 26 -40 21 -37
70 -96 131 -156 100 -98 138 -157 138 -214 0 -16 -17 -75 -36 -130 -51 -142
-74 -230 -81 -310 -6 -67 -5 -69 12 -55 42 34 140 181 190 284 52 108 95 248
95 311 0 88 -56 190 -166 302 -159 162 -261 325 -299 473 -9 36 -19 110 -22
164 l-6 99 94 -7 c1448 -105 2593 -382 3169 -769 231 -155 388 -344 435 -523
34 -132 12 -189 -143 -367 -133 -153 -383 -402 -492 -490 -162 -131 -440 -298
-745 -447 -496 -242 -987 -409 -1615 -550 -501 -112 -938 -166 -1530 -191
-239 -11 -307 -10 -520 5 -1161 81 -2102 284 -2875 621 -549 239 -1029 594
-1209 893 -52 88 -116 257 -116 309 0 38 32 114 88 210 69 117 46 112 217 47
83 -31 276 -103 430 -160 513 -189 637 -241 836 -349 228 -125 458 -272 919
-590 306 -211 341 -233 395 -246 51 -13 75 -2 75 35 -1 138 -722 879 -1425
1466 -299 249 -517 409 -649 477 l-39 20 65 36 c391 219 932 394 1534 497 353
60 890 115 1172 119 l102 1 0 -42z m1285 27 c160 -8 331 -17 381 -21 l91 -7 6
-191 c6 -202 23 -328 57 -440 12 -37 19 -70 16 -73 -2 -3 -67 0 -143 6 -76 6
-186 13 -246 17 l-107 6 -34 66 c-18 37 -73 127 -121 201 -48 74 -107 171
-131 215 -41 77 -94 205 -94 226 0 12 -22 13 325 -5z m-145 -836 c61 -93 73
-182 41 -309 -11 -41 -33 -129 -50 -195 -16 -66 -36 -168 -42 -227 l-12 -106
-36 -7 c-80 -15 -131 -62 -138 -127 -4 -38 -1 -49 23 -77 32 -38 95 -70 138
-71 90 0 176 67 176 140 0 48 -43 103 -95 121 l-34 13 21 35 c30 50 46 65 19
17 -24 -43 -25 -41 21 -65 102 -55 103 -179 2 -242 -55 -34 -153 -34 -208 0
-123 77 -93 223 56 262 l45 12 12 105 c7 57 32 181 56 276 57 221 62 266 40
341 -18 63 -31 88 -85 155 -57 72 -66 89 -21 40 22 -25 54 -66 71 -91z m-482
114 c-15 -2 -42 -2 -60 0 -18 2 -6 4 27 4 33 0 48 -2 33 -4z m724 -2 c-11 -7
-11 -20 -1 -70 21 -109 -2 -271 -68 -476 -33 -102 -125 -315 -137 -315 -3 0
16 44 41 98 124 267 186 558 150 707 -14 60 -14 61 7 63 14 1 17 -1 8 -7z
m131 -8 c-13 -2 -33 -2 -45 0 -13 2 -3 4 22 4 25 0 35 -2 23 -4z m-1255 -10
c-10 -2 -28 -2 -40 0 -13 2 -5 4 17 4 22 1 32 -1 23 -4z m1450 0 c-10 -2 -26
-2 -35 0 -10 3 -2 5 17 5 19 0 27 -2 18 -5z m-1555 -10 c-7 -2 -21 -2 -30 0
-10 3 -4 5 12 5 17 0 24 -2 18 -5z m1660 0 c-7 -2 -21 -2 -30 0 -10 3 -4 5 12
5 17 0 24 -2 18 -5z m-1800 -10 c-7 -2 -19 -2 -25 0 -7 3 -2 5 12 5 14 0 19
-2 13 -5z m-80 -10 c-7 -2 -19 -2 -25 0 -7 3 -2 5 12 5 14 0 19 -2 13 -5z
m-110 -10 c-7 -2 -19 -2 -25 0 -7 3 -2 5 12 5 14 0 19 -2 13 -5z m-66 -9 c-3
-3 -12 -4 -19 -1 -8 3 -5 6 6 6 11 1 17 -2 13 -5z m-90 -10 c-3 -3 -12 -4 -19
-1 -8 3 -5 6 6 6 11 1 17 -2 13 -5z m2620 0 c-3 -3 -12 -4 -19 -1 -8 3 -5 6 6
6 11 1 17 -2 13 -5z m-2680 -10 c-3 -3 -12 -4 -19 -1 -8 3 -5 6 6 6 11 1 17
-2 13 -5z m2730 0 c-3 -3 -12 -4 -19 -1 -8 3 -5 6 6 6 11 1 17 -2 13 -5z m90
-10 c-3 -3 -12 -4 -19 -1 -8 3 -5 6 6 6 11 1 17 -2 13 -5z m-2950 -10 c-3 -3
-12 -4 -19 -1 -8 3 -5 6 6 6 11 1 17 -2 13 -5z m3000 0 c-3 -3 -12 -4 -19 -1
-8 3 -5 6 6 6 11 1 17 -2 13 -5z m-3080 -10 c-3 -3 -12 -4 -19 -1 -8 3 -5 6 6
6 11 1 17 -2 13 -5z m3200 -10 c-3 -3 -12 -4 -19 -1 -8 3 -5 6 6 6 11 1 17 -2
13 -5z m-2214 -1178 c96 -52 87 -170 -17 -217 -72 -33 -146 -20 -203 34 -74
70 -40 168 69 202 51 16 99 10 151 -19z m3305 2 c125 -58 123 -217 -4 -278
-131 -64 -294 14 -294 139 0 77 56 139 146 160 49 11 97 5 152 -21z m-1611
-137 c101 -46 94 -166 -11 -206 -44 -17 -48 -17 -91 -1 -109 42 -115 160 -10
207 50 23 60 23 112 0z m286 -142 c21 -5 53 -24 72 -40 108 -96 22 -260 -130
-247 -66 6 -111 37 -137 94 -15 36 -17 51 -9 82 13 46 55 89 107 107 48 17 50
17 97 4z m-2752 -44 c56 -20 116 -79 131 -127 10 -33 16 -38 47 -43 82 -13
163 -39 206 -66 46 -29 85 -80 85 -112 0 -32 -70 -157 -111 -198 -48 -48 -92
-68 -238 -107 l-110 -30 -108 14 c-155 20 -340 60 -441 95 -97 35 -177 73
-187 90 -18 28 20 25 145 -11 74 -22 191 -51 260 -66 209 -43 409 -32 544 29
47 22 57 32 85 87 37 76 39 113 8 144 -41 41 -179 61 -202 29 -11 -14 -8 -21
16 -44 16 -15 29 -31 29 -37 0 -5 -21 -32 -47 -60 -43 -45 -56 -52 -123 -67
-85 -20 -186 -22 -310 -5 -114 15 -253 48 -276 65 -13 9 -1 8 37 -5 141 -46
390 -73 499 -53 101 18 142 38 180 85 l32 39 -23 25 c-12 13 -28 24 -35 24 -9
0 -6 11 9 33 21 32 22 33 82 26 70 -7 122 -28 149 -57 27 -31 17 -95 -25 -165
-32 -54 -37 -58 -114 -86 -118 -43 -250 -58 -372 -42 -137 17 -433 89 -525
126 -11 4 -18 3 -18 -3 0 -16 137 -78 234 -106 112 -33 214 -53 370 -75 l130
-19 120 35 c139 40 179 59 223 105 44 46 106 174 99 203 -15 60 -142 130 -260
143 -58 7 -60 8 -69 42 -12 49 -51 96 -100 122 -33 18 -59 23 -117 23 -82 0
-120 -15 -166 -63 -93 -97 -58 -232 75 -288 50 -21 149 -18 195 6 44 22 56 19
56 -14 0 -29 -34 -60 -85 -77 -68 -23 -307 -18 -448 10 -64 13 -119 26 -122
30 -2 4 49 -3 113 -17 140 -29 364 -35 450 -13 53 13 82 39 82 73 0 15 -4 15
-47 -4 -88 -39 -201 -22 -266 40 -38 35 -67 94 -67 132 0 39 24 97 53 129 58
63 177 88 268 56z m3837 -111 c93 -46 127 -134 80 -204 -82 -121 -278 -131
-372 -20 -49 59 -47 128 7 181 73 73 189 91 285 43z m-2309 -20 c98 -29 163
-123 141 -204 -12 -43 -71 -103 -125 -126 -132 -55 -306 20 -331 142 -8 44 25
114 70 149 72 55 150 67 245 39z m-2590 -100 c33 -9 69 -30 94 -54 36 -33 42
-44 42 -80 0 -36 -6 -47 -42 -80 -117 -110 -356 -82 -409 47 -27 62 23 131
118 164 66 23 128 24 197 3z m1812 -295 c49 -17 89 -57 89 -90 0 -58 -101
-107 -194 -94 -80 10 -136 50 -136 97 0 68 143 119 241 87z m-1344 -275 c-3
-3 -12 -4 -19 -1 -8 3 -5 6 6 6 11 1 17 -2 13 -5z m86 -11 c-7 -2 -19 -2 -25
0 -7 3 -2 5 12 5 14 0 19 -2 13 -5z m54 -9 c-3 -3 -12 -4 -19 -1 -8 3 -5 6 6
6 11 1 17 -2 13 -5z m90 -10 c-3 -3 -12 -4 -19 -1 -8 3 -5 6 6 6 11 1 17 -2
13 -5z m56 -11 c-7 -2 -19 -2 -25 0 -7 3 -2 5 12 5 14 0 19 -2 13 -5z m100
-10 c-7 -2 -19 -2 -25 0 -7 3 -2 5 12 5 14 0 19 -2 13 -5z m2934 1 c-3 -3 -12
-4 -19 -1 -8 3 -5 6 6 6 11 1 17 -2 13 -5z m-2870 -10 c-3 -3 -12 -4 -19 -1
-8 3 -5 6 6 6 11 1 17 -2 13 -5z m2810 0 c-3 -3 -12 -4 -19 -1 -8 3 -5 6 6 6
11 1 17 -2 13 -5z m-2694 -11 c-7 -2 -19 -2 -25 0 -7 3 -2 5 12 5 14 0 19 -2
13 -5z m2580 0 c-7 -2 -19 -2 -25 0 -7 3 -2 5 12 5 14 0 19 -2 13 -5z m-2500
-10 c-7 -2 -19 -2 -25 0 -7 3 -2 5 12 5 14 0 19 -2 13 -5z m2430 0 c-7 -2 -21
-2 -30 0 -10 3 -4 5 12 5 17 0 24 -2 18 -5z m-2290 -10 c-7 -2 -21 -2 -30 0
-10 3 -4 5 12 5 17 0 24 -2 18 -5z m2150 0 c-7 -2 -21 -2 -30 0 -10 3 -4 5 12
5 17 0 24 -2 18 -5z m-2060 -10 c-7 -2 -21 -2 -30 0 -10 3 -4 5 12 5 17 0 24
-2 18 -5z m1970 0 c-7 -2 -21 -2 -30 0 -10 3 -4 5 12 5 17 0 24 -2 18 -5z
m-1785 -10 c-10 -2 -28 -2 -40 0 -13 2 -5 4 17 4 22 1 32 -1 23 -4z m1610 0
c-10 -2 -28 -2 -40 0 -13 2 -5 4 17 4 22 1 32 -1 23 -4z m-1475 -10 c-13 -2
-35 -2 -50 0 -16 2 -5 4 22 4 28 0 40 -2 28 -4z m1350 0 c-13 -2 -35 -2 -50 0
-16 2 -5 4 22 4 28 0 40 -2 28 -4z m-1045 -10 c-21 -2 -55 -2 -75 0 -21 2 -4
4 37 4 41 0 58 -2 38 -4z m760 0 c-21 -2 -55 -2 -75 0 -21 2 -4 4 37 4 41 0
58 -2 38 -4z m-385 -10 c-18 -2 -48 -2 -65 0 -18 2 -4 4 32 4 36 0 50 -2 33
-4z"/>
<path d="M5138 5458 c-21 -12 -45 -37 -54 -56 -14 -30 -14 -39 -2 -70 24 -64
106 -102 185 -87 54 10 113 72 113 117 0 40 -28 81 -70 103 -43 22 -128 19
-172 -7z"/>
<path d="M8425 5457 c-112 -63 -112 -191 0 -254 72 -41 191 -27 241 29 98 107
18 248 -141 248 -44 0 -71 -6 -100 -23z"/>
<path d="M6923 5329 c-40 -12 -83 -62 -83 -99 0 -38 43 -87 86 -99 70 -19 154
34 154 99 0 33 -41 86 -73 95 -43 12 -52 13 -84 4z"/>
<path d="M7169 5156 c-76 -52 -82 -145 -14 -205 65 -57 155 -54 217 9 32 31
38 44 38 79 0 88 -58 141 -151 141 -41 0 -63 -6 -90 -24z"/>
<path d="M8197 5040 c-75 -23 -133 -97 -124 -157 19 -117 189 -178 315 -114
48 25 92 84 92 124 0 109 -150 187 -283 147z"/>
<path d="M5908 5005 c-131 -42 -174 -183 -82 -264 50 -44 97 -61 170 -61 107
0 190 53 213 136 35 127 -144 239 -301 189z"/>
<path d="M3309 4907 c-51 -14 -104 -49 -119 -77 -6 -10 -10 -35 -10 -56 0 -29
7 -43 35 -70 45 -42 100 -59 191 -58 86 0 157 31 191 83 29 43 29 59 0 102
-46 70 -183 106 -288 76z"/>
<path d="M5158 4608 c-34 -9 -88 -57 -88 -78 0 -5 11 -22 25 -38 67 -80 274
-55 283 34 7 68 -109 111 -220 82z"/>
<path d="M10059 3439 c35 -16 66 -28 68 -26 4 5 -111 57 -123 57 -5 -1 20 -14
55 -31z"/>
<path d="M1854 3404 c-18 -14 -18 -14 6 -3 31 14 36 19 24 19 -6 0 -19 -7 -30
-16z"/>
<path d="M10160 3396 c0 -2 7 -7 16 -10 8 -3 12 -2 9 4 -6 10 -25 14 -25 6z"/>
<path d="M1788 3369 c-21 -11 -38 -22 -38 -24 0 -3 18 4 40 15 22 11 40 23 40
25 0 7 0 7 -42 -16z"/>
<path d="M10220 3366 c0 -3 14 -12 30 -21 17 -9 30 -13 30 -11 0 3 -13 12 -30
21 -16 9 -30 13 -30 11z"/>
<path d="M1668 3290 c-66 -50 -129 -117 -163 -175 -19 -33 -14 -27 55 62 22
28 72 75 110 104 61 45 77 59 68 59 -2 0 -33 -23 -70 -50z"/>
<path d="M10290 3327 c0 -2 25 -21 55 -42 61 -42 157 -140 180 -186 9 -16 18
-29 21 -29 17 0 -41 77 -110 145 -69 67 -146 127 -146 112z"/>
<path d="M1466 3040 c-22 -56 -19 -65 5 -11 11 24 18 46 15 48 -2 2 -11 -14
-20 -37z"/>
<path d="M10551 3060 c-1 -3 8 -27 19 -55 10 -27 19 -43 19 -35 0 14 -36 101
-38 90z"/>
<path d="M1442 2960 c0 -14 2 -19 5 -12 2 6 2 18 0 25 -3 6 -5 1 -5 -13z"/>
<path d="M10592 2920 c0 -19 2 -27 5 -17 2 9 2 25 0 35 -3 9 -5 1 -5 -18z"/>
<path d="M1433 2885 c0 -22 2 -30 4 -17 2 12 2 30 0 40 -3 9 -5 -1 -4 -23z"/>
<path d="M10601 2834 c0 -11 3 -14 6 -6 3 7 2 16 -1 19 -3 4 -6 -2 -5 -13z"/>
<path d="M1433 2780 c0 -25 2 -35 4 -22 2 12 2 32 0 45 -2 12 -4 2 -4 -23z"/>
<path d="M10593 2750 c0 -25 2 -35 4 -22 2 12 2 32 0 45 -2 12 -4 2 -4 -23z"/>
<path d="M1442 2705 c0 -16 2 -22 5 -12 2 9 2 23 0 30 -3 6 -5 -1 -5 -18z"/>
<path d="M10581 2684 c0 -11 3 -14 6 -6 3 7 2 16 -1 19 -3 4 -6 -2 -5 -13z"/>
<path d="M1451 2654 c0 -11 3 -14 6 -6 3 7 2 16 -1 19 -3 4 -6 -2 -5 -13z"/>
<path d="M10571 2644 c0 -11 3 -14 6 -6 3 7 2 16 -1 19 -3 4 -6 -2 -5 -13z"/>
<path d="M10536 2545 c-9 -26 -7 -32 5 -12 6 10 9 21 6 23 -2 3 -7 -2 -11 -11z"/>
<path d="M1500 2516 c0 -11 50 -106 55 -106 3 0 -7 24 -21 53 -28 55 -34 65
-34 53z"/>
<path d="M10515 2499 c-4 -6 -5 -12 -2 -15 2 -3 7 2 10 11 7 17 1 20 -8 4z"/>
<path d="M10470 2410 c-6 -11 -8 -20 -6 -20 3 0 10 9 16 20 6 11 8 20 6 20 -3
0 -10 -9 -16 -20z"/>
<path d="M10412 2318 c-24 -36 -30 -49 -15 -31 28 31 68 93 60 93 -2 0 -22
-28 -45 -62z"/>
<path d="M1630 2286 c0 -2 8 -10 18 -17 15 -13 16 -12 3 4 -13 16 -21 21 -21
13z"/>
<path d="M1691 2210 c45 -59 219 -234 289 -289 49 -39 48 -37 -10 15 -83 74
-192 183 -259 259 -38 43 -44 47 -20 15z"/>
<path d="M10344 2228 l-19 -23 23 19 c21 18 27 26 19 26 -2 0 -12 -10 -23 -22z"/>
<path d="M10225 2098 c-55 -55 -144 -137 -197 -181 -108 -88 -133 -116 -37
-41 101 80 357 325 338 324 -2 0 -49 -46 -104 -102z"/>
<path d="M2068 1852 c40 -35 122 -95 122 -89 0 3 -35 30 -77 61 -43 32 -63 44
-45 28z"/>
<path d="M9885 1804 l-30 -26 33 22 c17 12 32 23 32 26 0 7 -4 5 -35 -22z"/>
<path d="M9753 1717 c-134 -91 -132 -90 -103 -76 50 24 223 145 198 138 -2 0
-44 -28 -95 -62z"/>
<path d="M2200 1755 c0 -2 26 -22 58 -43 70 -47 82 -54 82 -49 0 2 -31 25 -70
51 -38 25 -70 44 -70 41z"/>
<path d="M2365 1645 c11 -9 29 -21 40 -26 l20 -10 -20 16 c-11 9 -29 21 -40
26 l-20 10 20 -16z"/>
<path d="M9594 1614 c-18 -14 -18 -15 4 -4 12 6 22 13 22 15 0 8 -5 6 -26 -11z"/>
<path d="M2430 1606 c0 -3 9 -10 20 -16 11 -6 20 -8 20 -6 0 3 -9 10 -20 16
-11 6 -20 8 -20 6z"/>
<path d="M9544 1584 c-18 -14 -18 -15 4 -4 12 6 22 13 22 15 0 8 -5 6 -26 -11z"/>
<path d="M2480 1575 c0 -2 18 -14 40 -25 22 -11 40 -18 40 -15 0 2 -18 14 -40
25 -22 11 -40 18 -40 15z"/>
<path d="M9478 1549 c-21 -11 -38 -22 -38 -24 0 -3 18 4 40 15 22 11 40 23 40
25 0 7 0 7 -42 -16z"/>
<path d="M2570 1526 c0 -3 14 -12 30 -21 17 -9 30 -13 30 -11 0 3 -13 12 -30
21 -16 9 -30 13 -30 11z"/>
<path d="M9300 1455 c-69 -35 -122 -64 -117 -64 10 -1 247 118 247 124 0 7 8
11 -130 -60z"/>
<path d="M2640 1486 c0 -2 7 -7 16 -10 8 -3 12 -2 9 4 -6 10 -25 14 -25 6z"/>
<path d="M2800 1406 c0 -2 7 -7 16 -10 8 -3 12 -2 9 4 -6 10 -25 14 -25 6z"/>
<path d="M2880 1365 c25 -13 50 -24 55 -24 6 0 -10 11 -35 24 -25 13 -49 24
-55 24 -5 0 10 -11 35 -24z"/>
<path d="M9080 1350 c-19 -11 -30 -19 -25 -19 6 0 26 8 45 19 19 11 31 19 25
19 -5 0 -26 -8 -45 -19z"/>
<path d="M2980 1320 c8 -5 20 -10 25 -10 6 0 3 5 -5 10 -8 5 -19 10 -25 10 -5
0 -3 -5 5 -10z"/>
<path d="M9000 1315 c-14 -8 -20 -14 -15 -14 6 0 21 6 35 14 14 8 21 14 15 14
-5 0 -21 -6 -35 -14z"/>
<path d="M3050 1290 c19 -11 40 -19 45 -19 6 0 -6 8 -25 19 -19 11 -39 19 -45
19 -5 0 6 -8 25 -19z"/>
<path d="M8920 1280 c-8 -5 -10 -10 -5 -10 6 0 17 5 25 10 8 5 11 10 5 10 -5
0 -17 -5 -25 -10z"/>
<path d="M3120 1260 c8 -5 20 -10 25 -10 6 0 3 5 -5 10 -8 5 -19 10 -25 10 -5
0 -3 -5 5 -10z"/>
<path d="M8870 1260 c-8 -5 -10 -10 -5 -10 6 0 17 5 25 10 8 5 11 10 5 10 -5
0 -17 -5 -25 -10z"/>
<path d="M3170 1240 c8 -5 20 -10 25 -10 6 0 3 5 -5 10 -8 5 -19 10 -25 10 -5
0 -3 -5 5 -10z"/>
<path d="M8820 1240 c-8 -5 -10 -10 -5 -10 6 0 17 5 25 10 8 5 11 10 5 10 -5
0 -17 -5 -25 -10z"/>
<path d="M3220 1220 c8 -5 20 -10 25 -10 6 0 3 5 -5 10 -8 5 -19 10 -25 10 -5
0 -3 -5 5 -10z"/>
<path d="M8770 1220 c-8 -5 -10 -10 -5 -10 6 0 17 5 25 10 8 5 11 10 5 10 -5
0 -17 -5 -25 -10z"/>
<path d="M3300 1192 c8 -5 26 -13 40 -16 17 -5 20 -4 10 2 -8 5 -26 13 -40 16
-17 5 -20 4 -10 -2z"/>
<path d="M8675 1185 c-25 -12 -26 -14 -5 -9 28 7 60 23 45 23 -5 0 -23 -6 -40
-14z"/>
<path d="M3410 1152 c8 -5 26 -13 40 -16 17 -5 20 -4 10 2 -8 5 -26 13 -40 16
-17 5 -20 4 -10 -2z"/>
<path d="M8565 1145 c-25 -12 -26 -14 -5 -9 28 7 60 23 45 23 -5 0 -23 -6 -40
-14z"/>
<path d="M3495 1120 c27 -12 43 -12 25 0 -8 5 -22 9 -30 9 -10 0 -8 -3 5 -9z"/>
<path d="M8470 1115 c-19 -7 -28 -13 -20 -13 8 0 31 6 50 13 19 7 28 13 20 13
-8 0 -31 -6 -50 -13z"/>
<path d="M3555 1100 c27 -12 43 -12 25 0 -8 5 -22 9 -30 9 -10 0 -8 -3 5 -9z"/>
<path d="M8395 1090 c-13 -6 -15 -9 -5 -9 8 0 22 4 30 9 18 12 2 12 -25 0z"/>
<path d="M3615 1080 c27 -12 43 -12 25 0 -8 5 -22 9 -30 9 -10 0 -8 -3 5 -9z"/>
<path d="M3668 1063 c7 -3 16 -2 19 1 4 3 -2 6 -13 5 -11 0 -14 -3 -6 -6z"/>
<path d="M8280 1055 c-19 -7 -28 -13 -20 -13 8 0 31 6 50 13 19 7 28 13 20 13
-8 0 -31 -6 -50 -13z"/>
<path d="M3738 1043 c7 -3 16 -2 19 1 4 3 -2 6 -13 5 -11 0 -14 -3 -6 -6z"/>
<path d="M3780 1031 c8 -5 31 -11 50 -15 24 -4 28 -3 15 2 -31 14 -83 24 -65
13z"/>
<path d="M8188 1023 c7 -3 16 -2 19 1 4 3 -2 6 -13 5 -11 0 -14 -3 -6 -6z"/>
<path d="M3878 1003 c7 -3 16 -2 19 1 4 3 -2 6 -13 5 -11 0 -14 -3 -6 -6z"/>
<path d="M8085 1000 c-25 -11 1 -11 35 0 20 6 21 8 5 8 -11 0 -29 -3 -40 -8z"/>
<path d="M3948 983 c7 -3 16 -2 19 1 4 3 -2 6 -13 5 -11 0 -14 -3 -6 -6z"/>
<path d="M8038 983 c7 -3 16 -2 19 1 4 3 -2 6 -13 5 -11 0 -14 -3 -6 -6z"/>
<path d="M3988 973 c7 -3 16 -2 19 1 4 3 -2 6 -13 5 -11 0 -14 -3 -6 -6z"/>
<path d="M4028 963 c7 -3 16 -2 19 1 4 3 -2 6 -13 5 -11 0 -14 -3 -6 -6z"/>
<path d="M7958 963 c6 -2 18 -2 25 0 6 3 1 5 -13 5 -14 0 -19 -2 -12 -5z"/>
<path d="M4075 950 c11 -5 29 -8 40 -8 16 0 15 2 -5 8 -34 11 -60 11 -35 0z"/>
<path d="M7878 943 c6 -2 18 -2 25 0 6 3 1 5 -13 5 -14 0 -19 -2 -12 -5z"/>
<path d="M4148 933 c7 -3 16 -2 19 1 4 3 -2 6 -13 5 -11 0 -14 -3 -6 -6z"/>
<path d="M7838 933 c7 -3 16 -2 19 1 4 3 -2 6 -13 5 -11 0 -14 -3 -6 -6z"/>
<path d="M4188 923 c6 -2 18 -2 25 0 6 3 1 5 -13 5 -14 0 -19 -2 -12 -5z"/>
<path d="M7765 920 c-25 -11 1 -11 35 0 20 6 21 8 5 8 -11 0 -29 -3 -40 -8z"/>
<path d="M4238 913 c7 -3 16 -2 19 1 4 3 -2 6 -13 5 -11 0 -14 -3 -6 -6z"/>
<path d="M4278 903 c6 -2 18 -2 25 0 6 3 1 5 -13 5 -14 0 -19 -2 -12 -5z"/>
<path d="M7703 903 c9 -2 23 -2 30 0 6 3 -1 5 -18 5 -16 0 -22 -2 -12 -5z"/>
<path d="M4328 893 c7 -3 16 -2 19 1 4 3 -2 6 -13 5 -11 0 -14 -3 -6 -6z"/>
<path d="M7658 893 c7 -3 16 -2 19 1 4 3 -2 6 -13 5 -11 0 -14 -3 -6 -6z"/>
<path d="M4385 880 c17 -4 39 -8 50 -8 16 0 15 2 -5 8 -14 4 -36 8 -50 8 -22
0 -22 -1 5 -8z"/>
<path d="M7608 883 c6 -2 18 -2 25 0 6 3 1 5 -13 5 -14 0 -19 -2 -12 -5z"/>
<path d="M7558 873 c6 -2 18 -2 25 0 6 3 1 5 -13 5 -14 0 -19 -2 -12 -5z"/>
<path d="M4473 863 c9 -2 23 -2 30 0 6 3 -1 5 -18 5 -16 0 -22 -2 -12 -5z"/>
<path d="M7503 863 c9 -2 23 -2 30 0 6 3 -1 5 -18 5 -16 0 -22 -2 -12 -5z"/>
<path d="M4528 853 c6 -2 18 -2 25 0 6 3 1 5 -13 5 -14 0 -19 -2 -12 -5z"/>
<path d="M7448 853 c6 -2 18 -2 25 0 6 3 1 5 -13 5 -14 0 -19 -2 -12 -5z"/>
<path d="M4583 843 c9 -2 23 -2 30 0 6 3 -1 5 -18 5 -16 0 -22 -2 -12 -5z"/>
<path d="M7393 843 c9 -2 23 -2 30 0 6 3 -1 5 -18 5 -16 0 -22 -2 -12 -5z"/>
<path d="M4638 833 c6 -2 18 -2 25 0 6 3 1 5 -13 5 -14 0 -19 -2 -12 -5z"/>
<path d="M7338 833 c6 -2 18 -2 25 0 6 3 1 5 -13 5 -14 0 -19 -2 -12 -5z"/>
<path d="M4693 823 c9 -2 25 -2 35 0 9 3 1 5 -18 5 -19 0 -27 -2 -17 -5z"/>
<path d="M7273 823 c9 -2 25 -2 35 0 9 3 1 5 -18 5 -19 0 -27 -2 -17 -5z"/>
<path d="M4768 813 c6 -2 18 -2 25 0 6 3 1 5 -13 5 -14 0 -19 -2 -12 -5z"/>
<path d="M7208 813 c6 -2 18 -2 25 0 6 3 1 5 -13 5 -14 0 -19 -2 -12 -5z"/>
<path d="M4828 803 c12 -2 30 -2 40 0 9 3 -1 5 -23 4 -22 0 -30 -2 -17 -4z"/>
<path d="M7138 803 c12 -2 30 -2 40 0 9 3 -1 5 -23 4 -22 0 -30 -2 -17 -4z"/>
<path d="M4903 793 c9 -2 23 -2 30 0 6 3 -1 5 -18 5 -16 0 -22 -2 -12 -5z"/>
<path d="M7073 793 c9 -2 23 -2 30 0 6 3 -1 5 -18 5 -16 0 -22 -2 -12 -5z"/>
<path d="M4978 783 c12 -2 30 -2 40 0 9 3 -1 5 -23 4 -22 0 -30 -2 -17 -4z"/>
<path d="M6978 783 c12 -2 32 -2 45 0 12 2 2 4 -23 4 -25 0 -35 -2 -22 -4z"/>
<path d="M5063 773 c9 -2 25 -2 35 0 9 3 1 5 -18 5 -19 0 -27 -2 -17 -5z"/>
<path d="M6903 773 c9 -2 25 -2 35 0 9 3 1 5 -18 5 -19 0 -27 -2 -17 -5z"/>
<path d="M5143 763 c15 -2 39 -2 55 0 15 2 2 4 -28 4 -30 0 -43 -2 -27 -4z"/>
<path d="M6803 763 c15 -2 37 -2 50 0 12 2 0 4 -28 4 -27 0 -38 -2 -22 -4z"/>
<path d="M5258 753 c12 -2 30 -2 40 0 9 3 -1 5 -23 4 -22 0 -30 -2 -17 -4z"/>
<path d="M6708 753 c12 -2 30 -2 40 0 9 3 -1 5 -23 4 -22 0 -30 -2 -17 -4z"/>
<path d="M5363 743 c20 -2 54 -2 75 0 20 2 3 4 -38 4 -41 0 -58 -2 -37 -4z"/>
<path d="M6557 743 c18 -2 50 -2 70 0 21 2 7 4 -32 4 -38 0 -55 -2 -38 -4z"/>
<path d="M5528 733 c17 -2 47 -2 65 0 17 2 3 4 -33 4 -36 0 -50 -2 -32 -4z"/>
<path d="M6408 733 c17 -2 47 -2 65 0 17 2 3 4 -33 4 -36 0 -50 -2 -32 -4z"/>
<path d="M5822 723 c92 -2 245 -2 340 0 95 1 20 3 -167 3 -187 0 -265 -2 -173
-3z"/>
</g>
</svg>
