<?xml version="1.0" standalone="no"?>
<!DOCTYPE svg PUBLIC "-//W3C//DTD SVG 20010904//EN"
 "http://www.w3.org/TR/2001/REC-SVG-20010904/DTD/svg10.dtd">
<svg version="1.0" xmlns="http://www.w3.org/2000/svg"
 width="1280.000000pt" height="766.000000pt" viewBox="0 0 1280.000000 766.000000"
 preserveAspectRatio="xMidYMid meet">
<metadata>
Created by potrace 1.15, written by Peter Selinger 2001-2017
</metadata>
<g transform="translate(0.000000,766.000000) scale(0.100000,-0.100000)"
fill="#ff5722" stroke="none">
<path d="M11885 7222 c-66 -38 -695 -400 -1397 -805 -702 -406 -1283 -737
-1292 -737 -8 0 -87 18 -175 39 -1617 399 -3937 442 -5717 106 -1293 -244
-2167 -668 -2306 -1119 -35 -111 -31 -184 14 -279 30 -63 35 -83 28 -103 -13
-33 8 -132 70 -339 190 -628 499 -1195 945 -1730 129 -155 447 -473 600 -601
140 -116 321 -253 450 -340 273 -185 666 -392 975 -513 181 -72 475 -170 516
-173 23 -2 24 -6 24 -78 0 -82 19 -127 62 -152 35 -19 2376 -25 2433 -6 59 20
85 64 85 147 0 59 2 67 19 68 31 3 317 89 436 132 182 66 268 100 390 156 558
256 1014 570 1459 1005 409 401 714 811 945 1270 143 286 209 480 306 895 40
174 48 251 27 264 -11 7 -8 19 12 60 107 211 52 412 -172 621 -186 175 -471
337 -834 476 -71 27 -128 51 -128 54 0 3 566 331 1257 730 974 562 1260 731
1275 755 26 41 18 79 -31 164 -75 127 -104 130 -276 33z"/>
</g>
</svg>
